<?xml version="1.0" encoding="UTF-8"?>
<svg version="1.1" viewBox="0 0 46.146 45.948" xml:space="preserve" xmlns="http://www.w3.org/2000/svg"><title>file_upload</title><defs><clipPath id="clipPath18"><path d="M 0,34.461 H 34.609 V 0 H 0 Z"/></clipPath></defs><g transform="matrix(1.3333 0 0 -1.3333 0 45.948)"><g clip-path="url(#clipPath18)"><g transform="translate(6.854 30.181)"><path d="m0 0c1.684 0 3.048-1.365 3.048-3.048s-1.364-3.048-3.048-3.048-3.048 1.365-3.048 3.048 1.364 3.048 3.048 3.048" fill="#00bfa5"/></g><g transform="translate(17.752 25.582)"><path d="m0 0c-0.536 0.96-1.453 0.983-2.037 0.05l-2.871-4.587c-0.584-0.933-1.747-1.228-2.585-0.658-0.839 0.571-2.106 0.352-2.818-0.486l-2.86-3.371c-0.712-0.84-0.394-1.525 0.706-1.525h16.378c1.101 0 1.562 0.785 1.024 1.746z" fill="#00bfa5"/></g><path d="m2.625 31.662h21.947v-17.75h-21.947zm24.875-17.896v19.657c0 0.57-0.467 1.038-1.037 1.038h-25.426c-0.57 0-1.037-0.468-1.037-1.038v-25.079c0-0.571 0.467-1.038 1.037-1.038h19.817c0.104 3.585 3.037 6.46 6.646 6.46" fill="#00bfa5"/><g transform="translate(31.586 6.5273)"><path d="m0 0h-3.503v-3.502h-1.166v3.502h-3.503v1.166h3.503v3.502h1.166v-3.502h3.503zm-4.086 7.003c-3.545 0-6.42-2.875-6.42-6.421 0-3.544 2.875-6.419 6.42-6.419s6.42 2.875 6.42 6.419c0 3.546-2.875 6.421-6.42 6.421" fill="#00bfa5"/></g><g transform="translate(34.156 7.1094)"><path d="m0 0c0-3.675-2.98-6.656-6.656-6.656s-6.657 2.981-6.657 6.656c0 3.677 2.981 6.656 6.657 6.656s6.656-2.979 6.656-6.656z" fill="none" stroke="#fff" stroke-miterlimit="10" stroke-width=".906"/></g></g></g></svg>
