<svg xmlns="http://www.w3.org/2000/svg"><defs><symbol viewBox="0 0 46.146 45.948" id="file_upload"><defs><clipPath id="file_upload_a"><path d="M0 34.461h34.609V0H0z"/></clipPath></defs><g clip-path="url(#file_upload_a)" transform="matrix(1.3333 0 0 -1.3333 0 45.948)"><path d="M6.854 30.181a3.048 3.048 0 1 0 0-6.096 3.048 3.048 0 0 0 0 6.096m10.898-4.599c-.536.96-1.453.983-2.037.05l-2.871-4.587c-.584-.933-1.747-1.228-2.585-.658-.839.571-2.106.352-2.818-.486l-2.86-3.371c-.712-.84-.394-1.525.706-1.525h16.378c1.101 0 1.562.785 1.024 1.746z"/><path d="M2.625 31.662h21.947v-17.75H2.625zM27.5 13.766v19.657c0 .57-.467 1.038-1.037 1.038H1.037c-.57 0-1.037-.468-1.037-1.038V8.344a1.04 1.04 0 0 1 1.037-1.038h19.817a6.651 6.651 0 0 0 6.646 6.46"/><path d="M31.586 6.527h-3.503V3.025h-1.166v3.502h-3.503v1.166h3.503v3.502h1.166V7.693h3.503zM27.5 13.53a6.421 6.421 0 0 1 0-12.84 6.42 6.42 0 0 1 0 12.84"/><path d="M34.156 7.11a6.657 6.657 0 1 0-13.313 0 6.657 6.657 0 0 0 13.313 0z" stroke="#fff" stroke-miterlimit="10" stroke-width=".906"/></g></symbol></defs></svg>